# xmcd
#
# Track frame offsets: 
#        150
#        16161
#        31694
#        50898
#        65048
#        81036
#        99327
#        115201
#        129884
#        158159
#
# Disc length: 2381 seconds
#
# Revision: 1
# Processed by: cddbd v1.5.2PL0 Copyright (c) Steve Scherf et al.
# Submitted via: ExactAudioCopyFreeDBPlugin 1.0
#
DISCID=75094b0a
DTITLE=Aaron Lordson - Best of Lordson 3
DYEAR=2007
DGENRE=Soul
TTITLE0=Baby can I hold you tonight
TTITLE1=I don't need you
TTITLE2=She believes in me
TTITLE3=There goes my everything
TTITLE4=Take me with you
TTITLE5=Many rivers to cross
TTITLE6=Fever
TTITLE7=Stuck on you
TTITLE8=Six strings down
TTITLE9=Imagine
EXTD=YEAR: 2007
EXTT0=
EXTT1=
EXTT2=
EXTT3=
EXTT4=
EXTT5=
EXTT6=
EXTT7=
EXTT8=
EXTT9=
PLAYORDER=
